Coordinates
version=1
nRows=16
nColumns=22
inDegrees=yes

Units are S.I. units (second, meters, Newtons, ...)
If the header above contains a line with 'inDegrees', this indicates whether rotational values are in degrees (yes) or radians (no).

endheader
time	pelvis_tilt	pelvis_list	pelvis_rotation	pelvis_tx	pelvis_ty	pelvis_tz	hip_flexion_r	hip_adduction_r	hip_rotation_r	knee_angle_r	ankle_angle_r	subtalar_angle_r	hip_flexion_l	hip_adduction_l	hip_rotation_l	knee_angle_l	ankle_angle_l	subtalar_angle_l	lumbar_extension	lumbar_bending	lumbar_rotation
      1.39000000	     -0.71080547	     -3.45944116	     -6.15500469	      1.09478082	      0.92331678	      0.18115570	      0.27624834	      4.07704479	      1.76183382	     -8.12438578	      3.55133951	     -1.31444379	      0.45376748	     -6.67663206	    -13.63587539	    -12.47885267	      8.83569952	      0.84512856	     -4.93685155	     -0.04837578	      4.92491616
      1.40000000	     -0.65795418	     -3.47119145	     -6.22496257	      1.09401152	      0.92335981	      0.18182520	      0.46392329	      4.14488133	      1.83401777	     -8.50008447	      3.64350780	     -1.38432502	      0.54749756	     -6.74971466	    -13.64384944	    -12.70907346	      8.86964336	      0.82120067	     -5.07248384	     -0.04677009	      5.02700240
      1.41000000	     -0.67179305	     -3.45906852	     -6.31138090	      1.09316375	      0.92329293	      0.18256478	      0.74958738	      4.20275547	      1.96749974	     -8.91281157	      3.75139081	     -1.52575995	      0.73851938	     -6.81305362	    -13.67778168	    -12.98023135	      8.93142430	      0.77980548	     -5.13312782	     -0.06751065	      5.10872044
      1.42000000	     -0.64025999	     -3.46164818	     -6.38537663	      1.09230506	      0.92329016	      0.18333874	      0.99499238	      4.27542490	      2.05161121	     -9.34161569	      3.84079229	     -1.63096689	      0.87790088	     -6.88782928	    -13.67893143	    -13.24139011	      8.95974917	      0.74921302	     -5.24963650	     -0.08121075	      5.21908152
      1.43000000	     -0.60735118	     -3.46087947	     -6.47056475	      1.09141214	      0.92327650	      0.18417690	      1.25701720	      4.35049651	      2.14310832	     -9.80025156	      3.93825399	     -1.73246986	      1.01922007	     -6.96282426	    -13.69323713	    -13.50808041	      8.99034255	      0.72165504	     -5.36886702	     -0.10171676	      5.33773556
      1.44000000	     -0.57789078	     -3.45388430	     -6.55987561	      1.09047162	      0.92324463	      0.18506932	      1.54154891	      4.42553038	      2.23443043	    -10.28812107	      4.03934971	     -1.83938656	      1.17471287	     -7.03622709	    -13.70280231	    -13.78990667	      9.01888078	      0.69407778	     -5.48680675	     -0.13236909	      5.46672874
      1.45000000	     -0.54407516	     -3.43959638	     -6.64842874	      1.08946504	      0.92320287	      0.18600109	      1.84328829	      4.49789202	      2.32382389	    -10.80850746	      4.14766990	     -1.94756136	      1.33685496	     -7.10588631	    -13.71427151	    -14.08196655	      9.04832724	      0.66734720	     -5.61722014	     -0.17447128	      5.59937517
      1.46000000	     -0.53982019	     -3.41551059	     -6.73877037	      1.08838109	      0.92310388	      0.18697673	      2.19809775	      4.57022747	      2.41928329	    -11.35783831	      4.25504760	     -2.09017388	      1.54786262	     -7.17239566	    -13.69493719	    -14.39484407	      9.06754882	      0.63038639	     -5.71896026	     -0.22802520	      5.76331167
      1.47000000	     -0.48424393	     -3.38304387	     -6.82772284	      1.08726771	      0.92304814	      0.18798135	      2.51641679	      4.63124746	      2.50473806	    -11.93904691	      4.38041935	     -2.20070698	      1.70739185	     -7.22797303	    -13.70637263	    -14.71037372	      9.10546816	      0.60519680	     -5.88407892	     -0.29602702	      5.89197069
      1.48000000	     -0.46823248	     -3.34134275	     -6.91709178	      1.08605902	      0.92291707	      0.18902551	      2.89973937	      4.69475159	      2.59975085	    -12.54843620	      4.49302559	     -2.36108368	      1.92892780	     -7.28155639	    -13.66982584	    -15.04753251	      9.12423365	      0.56328961	     -6.01248859	     -0.37378337	      6.06851117
      1.49000000	     -0.42131677	     -3.29039479	     -7.00143869	      1.08479846	      0.92279730	      0.19009115	      3.26663393	      4.74954094	      2.69228547	    -13.18214691	      4.61657056	     -2.51452607	      2.12838311	     -7.32460743	    -13.63810720	    -15.39604811	      9.15714896	      0.52518722	     -6.18509534	     -0.46605747	      6.23333391
      1.50000000	     -0.36303425	     -3.23194569	     -7.08222644	      1.08346380	      0.92266056	      0.19118342	      3.64006585	      4.80097552	      2.78503295	    -13.84037206	      4.73636454	     -2.67821303	      2.33075526	     -7.36126608	    -13.58929583	    -15.76129668	      9.19198411	      0.48485187	     -6.38061976	     -0.56979648	      6.40395747
      1.51000000	     -0.26922809	     -3.16643522	     -7.15529269	      1.08204226	      0.92253387	      0.19228929	      3.99502531	      4.84469477	      2.86921138	    -14.52295100	      4.85800453	     -2.82660557	      2.51323833	     -7.39011844	    -13.53724636	    -16.14645293	      9.24180571	      0.45239594	     -6.63221527	     -0.68559297	      6.56143898
      1.52000000	     -0.18714206	     -3.09323633	     -7.21379159	      1.08049337	      0.92235231	      0.19340998	      4.38469825	      4.88935388	      2.94552092	    -15.22936050	      4.96683901	     -3.00960930	      2.73993563	     -7.41578260	    -13.44257852	    -16.56606618	      9.28215702	      0.40860812	     -6.88929400	     -0.81188819	      6.74293764
      1.53000000	     -0.09826327	     -3.01591767	     -7.25065490	      1.07880277	      0.92213487	      0.19451390	      4.78878067	      4.93246537	      3.00318617	    -15.95656317	      5.07075770	     -3.20867015	      2.99700501	     -7.44016484	    -13.31138454	    -17.02739646	      9.32830506	      0.35965720	     -7.17918138	     -0.93964390	      6.91622523
      1.54000000	      0.00113183	     -2.94108060	     -7.25981175	      1.07697948	      0.92188750	      0.19561195	      5.19867233	      4.98180340	      3.03412956	    -16.69792951	      5.16183085	     -3.41530130	      3.28786887	     -7.47106849	    -13.13006089	    -17.54607439	      9.37489660	      0.30711685	     -7.50354239	     -1.06782473	      7.07865770
